<mxfile host="Electron" agent="Mozilla/5.0 (Windows NT 10.0; Win64; x64) AppleWebKit/537.36 (KHTML, like Gecko) draw.io/27.0.9 Chrome/134.0.6998.205 Electron/35.4.0 Safari/537.36" version="27.0.9">
  <diagram name="Page-1" id="LJxX7Bb2exPSqoJOhxPj">
    <mxGraphModel dx="872" dy="529" grid="1" gridSize="10" guides="1" tooltips="1" connect="1" arrows="1" fold="1" page="1" pageScale="1" pageWidth="850" pageHeight="1100" math="0" shadow="0">
      <root>
        <mxCell id="0" />
        <mxCell id="1" parent="0" />
        <mxCell id="b0vLlWT6ZbKKmzBujs4X-2" value="" style="rounded=0;whiteSpace=wrap;html=1;fillColor=none;dashed=1;" parent="1" vertex="1">
          <mxGeometry x="40" y="160" width="130" height="360" as="geometry" />
        </mxCell>
        <mxCell id="b0vLlWT6ZbKKmzBujs4X-3" value="&lt;font style=&quot;font-size: 18px;&quot;&gt;Sources&lt;/font&gt;" style="rounded=0;whiteSpace=wrap;html=1;strokeColor=none;" parent="1" vertex="1">
          <mxGeometry x="62.5" y="140" width="85" height="30" as="geometry" />
        </mxCell>
        <mxCell id="b0vLlWT6ZbKKmzBujs4X-15" style="edgeStyle=orthogonalEdgeStyle;rounded=0;orthogonalLoop=1;jettySize=auto;html=1;entryX=0;entryY=0.5;entryDx=0;entryDy=0;" parent="1" source="b0vLlWT6ZbKKmzBujs4X-4" target="b0vLlWT6ZbKKmzBujs4X-12" edge="1">
          <mxGeometry relative="1" as="geometry" />
        </mxCell>
        <mxCell id="b0vLlWT6ZbKKmzBujs4X-16" style="edgeStyle=orthogonalEdgeStyle;rounded=0;orthogonalLoop=1;jettySize=auto;html=1;entryX=0;entryY=0.5;entryDx=0;entryDy=0;" parent="1" source="b0vLlWT6ZbKKmzBujs4X-4" target="b0vLlWT6ZbKKmzBujs4X-11" edge="1">
          <mxGeometry relative="1" as="geometry" />
        </mxCell>
        <mxCell id="b0vLlWT6ZbKKmzBujs4X-17" style="edgeStyle=orthogonalEdgeStyle;rounded=0;orthogonalLoop=1;jettySize=auto;html=1;entryX=0;entryY=0.5;entryDx=0;entryDy=0;" parent="1" source="b0vLlWT6ZbKKmzBujs4X-4" target="b0vLlWT6ZbKKmzBujs4X-13" edge="1">
          <mxGeometry relative="1" as="geometry" />
        </mxCell>
        <mxCell id="b0vLlWT6ZbKKmzBujs4X-4" value="CRM" style="image;aspect=fixed;html=1;points=[];align=center;fontSize=12;image=img/lib/azure2/general/Folder_Blank.svg;" parent="1" vertex="1">
          <mxGeometry x="80.36" y="245" width="49.29" height="40" as="geometry" />
        </mxCell>
        <mxCell id="b0vLlWT6ZbKKmzBujs4X-22" style="edgeStyle=orthogonalEdgeStyle;rounded=0;orthogonalLoop=1;jettySize=auto;html=1;" parent="1" source="b0vLlWT6ZbKKmzBujs4X-7" target="b0vLlWT6ZbKKmzBujs4X-19" edge="1">
          <mxGeometry relative="1" as="geometry" />
        </mxCell>
        <mxCell id="b0vLlWT6ZbKKmzBujs4X-23" style="edgeStyle=orthogonalEdgeStyle;rounded=0;orthogonalLoop=1;jettySize=auto;html=1;entryX=0;entryY=0.5;entryDx=0;entryDy=0;" parent="1" source="b0vLlWT6ZbKKmzBujs4X-7" target="b0vLlWT6ZbKKmzBujs4X-18" edge="1">
          <mxGeometry relative="1" as="geometry" />
        </mxCell>
        <mxCell id="b0vLlWT6ZbKKmzBujs4X-24" style="edgeStyle=orthogonalEdgeStyle;rounded=0;orthogonalLoop=1;jettySize=auto;html=1;entryX=0;entryY=0.5;entryDx=0;entryDy=0;" parent="1" source="b0vLlWT6ZbKKmzBujs4X-7" target="b0vLlWT6ZbKKmzBujs4X-20" edge="1">
          <mxGeometry relative="1" as="geometry" />
        </mxCell>
        <mxCell id="b0vLlWT6ZbKKmzBujs4X-7" value="ERP" style="image;aspect=fixed;html=1;points=[];align=center;fontSize=12;image=img/lib/azure2/general/Folder_Blank.svg;" parent="1" vertex="1">
          <mxGeometry x="80.36" y="405" width="49.29" height="40" as="geometry" />
        </mxCell>
        <mxCell id="b0vLlWT6ZbKKmzBujs4X-9" value="" style="rounded=1;whiteSpace=wrap;html=1;fillColor=default;strokeColor=#b46504;fillStyle=hatch;" parent="1" vertex="1">
          <mxGeometry x="220" y="180" width="140" height="340" as="geometry" />
        </mxCell>
        <mxCell id="b0vLlWT6ZbKKmzBujs4X-10" value="&lt;font style=&quot;font-size: 16px; color: rgb(0, 0, 0);&quot;&gt;&lt;b&gt;Bronze Layer&lt;/b&gt;&lt;/font&gt;" style="rounded=1;whiteSpace=wrap;html=1;fillColor=#fad7ac;strokeColor=#b46504;" parent="1" vertex="1">
          <mxGeometry x="230" y="140" width="120" height="30" as="geometry" />
        </mxCell>
        <mxCell id="hva-pvjH8h29gLJyFCZv-10" style="edgeStyle=orthogonalEdgeStyle;rounded=0;orthogonalLoop=1;jettySize=auto;html=1;" edge="1" parent="1" source="b0vLlWT6ZbKKmzBujs4X-11" target="hva-pvjH8h29gLJyFCZv-3">
          <mxGeometry relative="1" as="geometry" />
        </mxCell>
        <mxCell id="b0vLlWT6ZbKKmzBujs4X-11" value="&lt;font style=&quot;color: rgb(0, 0, 0);&quot;&gt;crm_cst_details&lt;/font&gt;" style="rounded=1;whiteSpace=wrap;html=1;fillColor=#fad7ac;strokeColor=#b46504;" parent="1" vertex="1">
          <mxGeometry x="230" y="210" width="120" height="30" as="geometry" />
        </mxCell>
        <mxCell id="hva-pvjH8h29gLJyFCZv-11" style="edgeStyle=orthogonalEdgeStyle;rounded=0;orthogonalLoop=1;jettySize=auto;html=1;entryX=0;entryY=0.5;entryDx=0;entryDy=0;" edge="1" parent="1" source="b0vLlWT6ZbKKmzBujs4X-12" target="hva-pvjH8h29gLJyFCZv-4">
          <mxGeometry relative="1" as="geometry" />
        </mxCell>
        <mxCell id="b0vLlWT6ZbKKmzBujs4X-12" value="&lt;font style=&quot;color: rgb(0, 0, 0);&quot;&gt;crm_prd_id&lt;/font&gt;" style="rounded=1;whiteSpace=wrap;html=1;fillColor=#fad7ac;strokeColor=#b46504;" parent="1" vertex="1">
          <mxGeometry x="230" y="250" width="120" height="30" as="geometry" />
        </mxCell>
        <mxCell id="hva-pvjH8h29gLJyFCZv-12" style="edgeStyle=orthogonalEdgeStyle;rounded=0;orthogonalLoop=1;jettySize=auto;html=1;" edge="1" parent="1" source="b0vLlWT6ZbKKmzBujs4X-13" target="hva-pvjH8h29gLJyFCZv-5">
          <mxGeometry relative="1" as="geometry" />
        </mxCell>
        <mxCell id="b0vLlWT6ZbKKmzBujs4X-13" value="&lt;font style=&quot;color: rgb(0, 0, 0);&quot;&gt;crm_sales_details&lt;/font&gt;" style="rounded=1;whiteSpace=wrap;html=1;fillColor=#fad7ac;strokeColor=#b46504;" parent="1" vertex="1">
          <mxGeometry x="230" y="290" width="120" height="30" as="geometry" />
        </mxCell>
        <mxCell id="hva-pvjH8h29gLJyFCZv-13" style="edgeStyle=orthogonalEdgeStyle;rounded=0;orthogonalLoop=1;jettySize=auto;html=1;entryX=0;entryY=0.5;entryDx=0;entryDy=0;" edge="1" parent="1" source="b0vLlWT6ZbKKmzBujs4X-18" target="hva-pvjH8h29gLJyFCZv-6">
          <mxGeometry relative="1" as="geometry" />
        </mxCell>
        <mxCell id="b0vLlWT6ZbKKmzBujs4X-18" value="&lt;font style=&quot;color: rgb(0, 0, 0);&quot;&gt;erp_cust_az12&lt;/font&gt;" style="rounded=1;whiteSpace=wrap;html=1;fillColor=#fad7ac;strokeColor=#b46504;" parent="1" vertex="1">
          <mxGeometry x="230" y="370" width="120" height="30" as="geometry" />
        </mxCell>
        <mxCell id="hva-pvjH8h29gLJyFCZv-14" style="edgeStyle=orthogonalEdgeStyle;rounded=0;orthogonalLoop=1;jettySize=auto;html=1;entryX=0;entryY=0.5;entryDx=0;entryDy=0;" edge="1" parent="1" source="b0vLlWT6ZbKKmzBujs4X-19" target="hva-pvjH8h29gLJyFCZv-7">
          <mxGeometry relative="1" as="geometry" />
        </mxCell>
        <mxCell id="b0vLlWT6ZbKKmzBujs4X-19" value="&lt;font style=&quot;color: rgb(0, 0, 0);&quot;&gt;erp_loc_a101&lt;/font&gt;" style="rounded=1;whiteSpace=wrap;html=1;fillColor=#fad7ac;strokeColor=#b46504;" parent="1" vertex="1">
          <mxGeometry x="230" y="410" width="120" height="30" as="geometry" />
        </mxCell>
        <mxCell id="hva-pvjH8h29gLJyFCZv-15" style="edgeStyle=orthogonalEdgeStyle;rounded=0;orthogonalLoop=1;jettySize=auto;html=1;entryX=0;entryY=0.5;entryDx=0;entryDy=0;" edge="1" parent="1" source="b0vLlWT6ZbKKmzBujs4X-20" target="hva-pvjH8h29gLJyFCZv-8">
          <mxGeometry relative="1" as="geometry" />
        </mxCell>
        <mxCell id="b0vLlWT6ZbKKmzBujs4X-20" value="&lt;font color=&quot;#000000&quot;&gt;erp_px_cat_g1v2&lt;/font&gt;" style="rounded=1;whiteSpace=wrap;html=1;fillColor=#fad7ac;strokeColor=#b46504;" parent="1" vertex="1">
          <mxGeometry x="230" y="450" width="120" height="30" as="geometry" />
        </mxCell>
        <mxCell id="hva-pvjH8h29gLJyFCZv-1" value="" style="rounded=1;whiteSpace=wrap;html=1;fillColor=default;strokeColor=default;fillStyle=hatch;" vertex="1" parent="1">
          <mxGeometry x="410" y="180" width="140" height="340" as="geometry" />
        </mxCell>
        <mxCell id="hva-pvjH8h29gLJyFCZv-2" value="&lt;font style=&quot;font-size: 16px; color: rgb(0, 0, 0);&quot;&gt;&lt;b&gt;Silver Layer&lt;/b&gt;&lt;/font&gt;" style="rounded=1;whiteSpace=wrap;html=1;fillColor=#bac8d3;strokeColor=#23445d;" vertex="1" parent="1">
          <mxGeometry x="420" y="140" width="120" height="30" as="geometry" />
        </mxCell>
        <mxCell id="hva-pvjH8h29gLJyFCZv-3" value="&lt;font style=&quot;color: rgb(0, 0, 0);&quot;&gt;crm_cst_details&lt;/font&gt;" style="rounded=1;whiteSpace=wrap;html=1;fillColor=#bac8d3;strokeColor=#23445d;" vertex="1" parent="1">
          <mxGeometry x="420" y="210" width="120" height="30" as="geometry" />
        </mxCell>
        <mxCell id="hva-pvjH8h29gLJyFCZv-4" value="&lt;font style=&quot;color: rgb(0, 0, 0);&quot;&gt;crm_prd_id&lt;/font&gt;" style="rounded=1;whiteSpace=wrap;html=1;fillColor=#bac8d3;strokeColor=#23445d;" vertex="1" parent="1">
          <mxGeometry x="420" y="250" width="120" height="30" as="geometry" />
        </mxCell>
        <mxCell id="hva-pvjH8h29gLJyFCZv-5" value="&lt;font style=&quot;color: rgb(0, 0, 0);&quot;&gt;crm_sales_details&lt;/font&gt;" style="rounded=1;whiteSpace=wrap;html=1;fillColor=#bac8d3;strokeColor=#23445d;" vertex="1" parent="1">
          <mxGeometry x="420" y="290" width="120" height="30" as="geometry" />
        </mxCell>
        <mxCell id="hva-pvjH8h29gLJyFCZv-6" value="&lt;font style=&quot;color: rgb(0, 0, 0);&quot;&gt;erp_cust_az12&lt;/font&gt;" style="rounded=1;whiteSpace=wrap;html=1;fillColor=#bac8d3;strokeColor=#23445d;" vertex="1" parent="1">
          <mxGeometry x="420" y="370" width="120" height="30" as="geometry" />
        </mxCell>
        <mxCell id="hva-pvjH8h29gLJyFCZv-7" value="&lt;font style=&quot;color: rgb(0, 0, 0);&quot;&gt;erp_loc_a101&lt;/font&gt;" style="rounded=1;whiteSpace=wrap;html=1;fillColor=#bac8d3;strokeColor=#23445d;" vertex="1" parent="1">
          <mxGeometry x="420" y="410" width="120" height="30" as="geometry" />
        </mxCell>
        <mxCell id="hva-pvjH8h29gLJyFCZv-8" value="&lt;font color=&quot;#000000&quot;&gt;erp_px_cat_g1v2&lt;/font&gt;" style="rounded=1;whiteSpace=wrap;html=1;fillColor=#bac8d3;strokeColor=#23445d;" vertex="1" parent="1">
          <mxGeometry x="420" y="450" width="120" height="30" as="geometry" />
        </mxCell>
      </root>
    </mxGraphModel>
  </diagram>
</mxfile>
